<svg width="42" height="42" viewBox="0 0 42 42" fill="none" xmlns="http://www.w3.org/2000/svg">
<path d="M10.5 7.875C9.80381 7.875 9.13613 8.15156 8.64384 8.64384C8.15156 9.13613 7.875 9.80381 7.875 10.5V31.5C7.875 32.1962 8.15156 32.8639 8.64384 33.3562C9.13613 33.8484 9.80381 34.125 10.5 34.125V24.9375C10.5 23.8932 10.9148 22.8917 11.6533 22.1533C12.3917 21.4148 13.3932 21 14.4375 21H27.5625C28.6068 21 29.6083 21.4148 30.3467 22.1533C31.0852 22.8917 31.5 23.8932 31.5 24.9375V34.125C32.1962 34.125 32.8639 33.8484 33.3562 33.3562C33.8484 32.8639 34.125 32.1962 34.125 31.5V14.7551C34.1249 14.059 33.8482 13.3914 33.3559 12.8993L29.1008 8.64412C28.6086 8.15181 27.941 7.87515 27.2449 7.875H26.25V11.8125C26.25 12.8568 25.8352 13.8583 25.0967 14.5967C24.3583 15.3352 23.3568 15.75 22.3125 15.75H17.0625C16.0182 15.75 15.0167 15.3352 14.2783 14.5967C13.5398 13.8583 13.125 12.8568 13.125 11.8125V7.875H10.5ZM15.75 7.875V11.8125C15.75 12.1606 15.8883 12.4944 16.1344 12.7406C16.3806 12.9867 16.7144 13.125 17.0625 13.125H22.3125C22.6606 13.125 22.9944 12.9867 23.2406 12.7406C23.4867 12.4944 23.625 12.1606 23.625 11.8125V7.875H15.75ZM28.875 34.125V24.9375C28.875 24.5894 28.7367 24.2556 28.4906 24.0094C28.2444 23.7633 27.9106 23.625 27.5625 23.625H14.4375C14.0894 23.625 13.7556 23.7633 13.5094 24.0094C13.2633 24.2556 13.125 24.5894 13.125 24.9375V34.125H28.875ZM5.25 10.5C5.25 9.10761 5.80312 7.77226 6.78769 6.78769C7.77226 5.80312 9.10761 5.25 10.5 5.25H27.2449C28.6371 5.2503 29.9723 5.80362 30.9566 6.78825L35.2117 11.0434C36.1964 12.0277 36.7497 13.3629 36.75 14.7551V31.5C36.75 32.8924 36.1969 34.2277 35.2123 35.2123C34.2277 36.1969 32.8924 36.75 31.5 36.75H10.5C9.10761 36.75 7.77226 36.1969 6.78769 35.2123C5.80312 34.2277 5.25 32.8924 5.25 31.5V10.5Z" fill="#F6DEBC"/>
</svg>
